<svg xmlns="http://www.w3.org/2000/svg" width="67" height="13" fill="none"><path fill="#fff" d="M3.84 12.14c-.7 0-1.31-.1-1.82-.3a2.2 2.2 0 0 1-1.14-1.06c-.27-.5-.4-1.22-.4-2.14v-.7H2.9v.9c0 .5.04.87.12 1.14.08.25.2.43.34.54.15.1.32.14.52.14.3 0 .55-.1.72-.32.19-.23.28-.66.28-1.3a2 2 0 0 0-.24-1.1 1.49 1.49 0 0 0-.72-.6 39.9 39.9 0 0 0-1.28-.58 4.1 4.1 0 0 1-1.16-.72c-.3-.28-.53-.63-.68-1.06a4.83 4.83 0 0 1-.22-1.56c0-.77.1-1.4.3-1.88.21-.48.56-.83 1.04-1.04A4.8 4.8 0 0 1 3.9.16c1.07 0 1.88.23 2.44.7.57.45.86 1.14.86 2.06v1.42H4.88v-.72c0-.6-.07-1.02-.22-1.26-.13-.24-.38-.36-.74-.36-.35 0-.6.1-.74.32-.15.21-.22.56-.22 1.04 0 .44.09.79.26 1.04.19.24.42.43.7.56l.9.36c.59.23 1.07.46 1.44.7a2 2 0 0 1 .82.96c.17.4.26.98.26 1.74 0 .85-.15 1.53-.44 2.04-.28.5-.69.85-1.22 1.06-.52.21-1.13.32-1.84.32Zm8.45.1c-.48 0-.92-.03-1.32-.1s-.74-.2-1.04-.42c-.3-.21-.52-.53-.68-.94-.16-.43-.24-1-.24-1.72V.18h2.32v9.54c0 .28.04.5.12.68.1.16.22.27.36.32a1.4 1.4 0 0 0 .94 0 .61.61 0 0 0 .34-.32c.1-.17.14-.4.14-.68V.18h2.32v8.88c0 .7-.08 1.27-.24 1.7a2.02 2.02 0 0 1-1.72 1.38c-.4.07-.83.1-1.3.1Zm5.3-.24V.18h4.2c.8 0 1.39.18 1.79.54.41.35.62.83.62 1.46v2.04c0 .53-.07 1.03-.2 1.5-.14.45-.38.82-.72 1.1-.35.28-.85.42-1.5.42h-1.76V12H17.6Zm2.43-6.04h.9c.32 0 .56-.15.72-.46.16-.3.24-.81.24-1.52v-.8c0-.63-.07-1.07-.2-1.34-.14-.27-.33-.4-.58-.4h-1.08v4.52ZM25.85 12V.18h5.44v1.64h-3.02v3.16h2.56V6.8h-2.56v3.6h3.02V12h-5.44Zm7.08 0V.18h4.32c.78 0 1.38.18 1.78.54.4.35.6.83.6 1.46v1.84c0 .63-.17 1.15-.5 1.58-.34.43-.86.67-1.56.74.45.07.77.22.96.46.2.23.37.6.52 1.12L40.17 12h-2.58l-.86-3.92a3.95 3.95 0 0 0-.28-.8c-.1-.23-.24-.34-.42-.34h-.68V12h-2.42Zm2.42-6.68h.96c.37 0 .64-.1.8-.3.16-.21.24-.55.24-1V2.6c0-.43-.08-.73-.22-.9-.15-.17-.38-.26-.68-.26h-1.1v3.88Zm8.86 6.9c-.46 0-.88-.07-1.28-.22-.39-.15-.71-.43-.96-.86a4.01 4.01 0 0 1-.38-1.96V2.7c0-.7.13-1.23.4-1.62.28-.39.66-.65 1.16-.8.49-.16 1.06-.24 1.72-.24.65 0 1.22.08 1.72.24.5.15.9.41 1.18.8.29.39.44.93.44 1.62v1.66h-2.26V2.58c0-.32-.05-.56-.14-.72a.6.6 0 0 0-.34-.34 1.59 1.59 0 0 0-.54-.08c-.2 0-.38.03-.54.08a.68.68 0 0 0-.36.34c-.08.16-.12.4-.12.72v7.16c0 .3.04.55.12.72.09.16.21.27.36.34.16.05.34.08.54.08a1 1 0 0 0 .74-.28c.18-.19.28-.47.28-.86V7.38h-.96V6.06h3.22V12h-1.74l-.12-.92a83.33 83.33 0 0 1-.14.22c-.14.23-.36.44-.68.64-.31.19-.75.28-1.32.28Zm7.45-.22V6.98L49.44.18h2.32l1.02 3.54.14.76.14-.76 1.1-3.54h2.12l-2.3 6.92V12h-2.32Zm6.06 0V.18h2.9l1.62 7.64L63.88.18h2.88V12h-2.04V3.16L63.02 12h-1.58l-1.68-8.84V12h-2.04Z"/></svg>