<svg xmlns="http://www.w3.org/2000/svg" width="81" height="16" fill="none"><path fill="#fff" d="M4.6 15.17c-.84 0-1.57-.12-2.18-.36a2.64 2.64 0 0 1-1.36-1.27 5.6 5.6 0 0 1-.48-2.57v-.84h2.9v1.08c0 .59.05 1.05.14 1.37.1.3.24.52.41.64.18.12.39.17.63.17.36 0 .65-.13.86-.38.22-.27.34-.8.34-1.56 0-.6-.1-1.03-.3-1.32-.17-.3-.46-.55-.86-.72-.4-.2-.9-.43-1.53-.7a4.92 4.92 0 0 1-1.4-.86 3.01 3.01 0 0 1-.81-1.27A5.8 5.8 0 0 1 .7 4.7c0-.92.12-1.68.36-2.25.25-.58.67-1 1.24-1.25C2.9.93 3.7.8 4.68.8c1.28 0 2.26.27 2.93.83C8.3 2.18 8.64 3 8.64 4.1v1.7H5.86v-.86a3.1 3.1 0 0 0-.27-1.5C5.43 3.13 5.14 3 4.7 3c-.41 0-.7.13-.88.38-.18.26-.27.68-.27 1.25 0 .53.1.95.31 1.25.23.29.5.51.84.67.34.15.7.29 1.08.43.7.28 1.28.56 1.73.84.45.28.78.66.99 1.16.2.48.3 1.17.3 2.08 0 1.03-.17 1.84-.52 2.45-.34.6-.82 1.02-1.46 1.27a5.8 5.8 0 0 1-2.21.39Zm10.15.12c-.57 0-1.1-.04-1.58-.12a2.9 2.9 0 0 1-1.25-.5 2.43 2.43 0 0 1-.82-1.13c-.19-.52-.29-1.2-.29-2.07V.82h2.79v11.44c0 .34.05.61.14.82.12.2.26.32.44.38a1.67 1.67 0 0 0 1.12 0c.18-.06.31-.19.41-.38.11-.2.17-.48.17-.82V.82h2.78v10.65c0 .85-.1 1.53-.29 2.04a2.43 2.43 0 0 1-2.06 1.66c-.48.08-1 .12-1.56.12Zm6.37-.29V.82h5.04c.94 0 1.65.21 2.13.64.5.42.75 1 .75 1.76v2.44c0 .64-.08 1.24-.24 1.8-.16.55-.45.99-.87 1.32a2.8 2.8 0 0 1-1.8.5h-2.11V15h-2.9Zm2.9-7.25h1.08c.38 0 .67-.18.86-.55.2-.37.3-.98.3-1.82v-.96c0-.76-.09-1.3-.25-1.61-.16-.32-.39-.48-.7-.48h-1.29v5.42Zm7 7.25V.82h6.53v1.96h-3.63v3.8H37v2.18h-3.07v4.32h3.63V15h-6.53Zm8.5 0V.82h5.18c.94 0 1.65.21 2.13.64.48.42.72 1 .72 1.76v2.2c0 .76-.2 1.39-.6 1.9-.4.51-1.02.8-1.87.89.55.08.93.26 1.15.55.24.27.45.72.63 1.34L48.2 15h-3.1l-1.03-4.7c-.1-.39-.2-.7-.33-.96-.11-.28-.28-.41-.5-.41h-.82V15h-2.9Zm2.9-8.02h1.15c.45 0 .77-.12.96-.36.2-.25.29-.65.29-1.2v-1.7c0-.51-.09-.87-.27-1.08-.17-.2-.44-.31-.81-.31h-1.32v4.65Zm10.63 8.28c-.55 0-1.06-.08-1.54-.26a2.3 2.3 0 0 1-1.15-1.03 4.82 4.82 0 0 1-.46-2.35V3.84c0-.83.16-1.48.48-1.94.34-.47.8-.79 1.4-.96a6.7 6.7 0 0 1 2.06-.3c.78 0 1.47.1 2.06.3.61.17 1.08.5 1.42.96.35.46.53 1.1.53 1.94v2h-2.71V3.7c0-.39-.06-.68-.17-.87a.73.73 0 0 0-.41-.4 1.9 1.9 0 0 0-.65-.1c-.24 0-.45.03-.65.1a.82.82 0 0 0-.43.4 2 2 0 0 0-.14.87v8.59c0 .37.05.65.14.86.11.2.26.33.43.41.2.06.41.1.65.1.37 0 .67-.12.89-.34.22-.22.34-.57.34-1.03V9.46h-1.16V7.87h3.87V15h-2.09l-.14-1.1-.1.14-.07.12c-.16.27-.43.53-.82.77-.37.22-.9.33-1.58.33Zm8.94-.26V8.98L59.32.82h2.79l1.22 4.24.17.92.17-.92L64.99.82h2.54l-2.76 8.3V15H62Zm7.28 0V.82h3.48l1.94 9.16L76.66.82h3.45V15h-2.44V4.4L75.63 15h-1.9L71.71 4.4V15h-2.44Z"/></svg>